<?xml version="1.0" encoding="utf-8"?>
<!-- Generator: Adobe Illustrator 22.0.1, SVG Export Plug-In . SVG Version: 6.00 Build 0)  -->
<svg version="1.1" id="Calque_1" xmlns="http://www.w3.org/2000/svg" xmlns:xlink="http://www.w3.org/1999/xlink" x="0px" y="0px"
	 viewBox="0 0 982.6 262" style="enable-background:new 0 0 982.6 262;" xml:space="preserve">
<style type="text/css">
	.st0{fill:#FFFFFF;}
</style>
<g>
	<g>
		<defs>
			<polygon id="SVGID_1_" points="13,248.1 13,243.7 18.3,224.3 29.9,216.6 229.1,216.6 283,227.6 289.6,243.4 285.2,248.1 			"/>
		</defs>
		<use xlink:href="#SVGID_1_"  style="overflow:visible;"/>
		<clipPath id="SVGID_2_">
			<use xlink:href="#SVGID_1_"  style="overflow:visible;"/>
		</clipPath>
	</g>
	<g>
		<defs>
			<polygon id="SVGID_3_" points="290.1,243.2 283.4,227.4 229.5,216.4 30.3,216.4 18.7,224.1 13.4,243.5 29.8,225.9 232.4,227.8 
							"/>
		</defs>
		<use xlink:href="#SVGID_3_"  style="overflow:visible;"/>
		<clipPath id="SVGID_4_">
			<use xlink:href="#SVGID_3_"  style="overflow:visible;"/>
		</clipPath>
	</g>
	<g>
		<g>
			<defs>
				<polygon id="SVGID_5_" points="296.8,201.4 289.2,185.6 17.8,185.6 13,201.4 13,209.9 30.6,222.8 193.1,224.4 				"/>
			</defs>
			<use xlink:href="#SVGID_5_"  style="overflow:visible;"/>
			<clipPath id="SVGID_6_">
				<use xlink:href="#SVGID_5_"  style="overflow:visible;"/>
			</clipPath>
		</g>
	</g>
	<g>
		<g>
			<defs>
				<polygon id="SVGID_7_" points="294.9,198.2 289.2,185.6 17.8,185.6 13,201.4 				"/>
			</defs>
			<use xlink:href="#SVGID_7_"  style="overflow:visible;"/>
			<clipPath id="SVGID_8_">
				<use xlink:href="#SVGID_7_"  style="overflow:visible;"/>
			</clipPath>
		</g>
	</g>
	<g>
		<path class="st0" d="M124.3,206.6c0,1.9-1.6,3.5-3.5,3.5l0,0c-1.9,0-3.5-1.6-3.5-3.5v-22c0-1.9,1.6-3.5,3.5-3.5l0,0
			c1.9,0,3.5,1.6,3.5,3.5V206.6z"/>
		<path class="st0" d="M180.6,227.2c1.8,0.8,2.5,2.9,1.7,4.7l0,0c-0.8,1.8-2.9,2.5-4.7,1.7l-58.3-24.1c-1.8-0.8-2.5-2.9-1.7-4.7l0,0
			c0.8-1.8,2.9-2.5,4.7-1.7L180.6,227.2z"/>
		<g>
			<g>
				<path class="st0" d="M183.6,210.1c-6.9,0-12.6,5.6-12.6,12.6c0,6.9,5.6,12.6,12.6,12.6c6.9,0,12.6-5.6,12.6-12.6
					C196.2,215.7,190.6,210.1,183.6,210.1z M183.1,220.1c-1.7,1.9-3.7,1.2-3.7,1.2s0.6-2.5,1.9-3.2
					C182.4,217.4,184.7,218.2,183.1,220.1z"/>
			</g>
		</g>
	</g>
</g>
<g>
	<path d="M14.5,140.7c-0.9,0-1.5-0.6-1.5-1.5v-99c0-0.9,0.6-1.5,1.5-1.5h39.6c22.2,0,35.5,13.3,35.5,32.8
		c0,19.2-13.5,32.7-35.5,32.7H35.9c-0.6,0-0.9,0.3-0.9,0.9v34c0,0.9-0.6,1.5-1.5,1.5H14.5z M67.6,71.6c0-8.3-5.5-13.8-14.8-13.8
		H35.9c-0.6,0-0.9,0.3-0.9,0.9v25.6c0,0.6,0.3,0.9,0.9,0.9h16.8C62,85.2,67.6,79.8,67.6,71.6z"/>
	<path d="M103.7,40.2c0-0.9,0.6-1.5,1.5-1.5h19c0.9,0,1.5,0.6,1.5,1.5v99c0,0.9-0.6,1.5-1.5,1.5h-19c-0.9,0-1.5-0.6-1.5-1.5V40.2z"
		/>
	<path d="M145.3,40.2c0-0.9,0.6-1.5,1.5-1.5h18c1,0,1.9,0.4,2.5,1.5l36,64.2h0.8V40.2c0-0.9,0.6-1.5,1.5-1.5h16.9
		c0.9,0,1.5,0.6,1.5,1.5v99c0,0.9-0.6,1.5-1.5,1.5h-17.8c-1.2,0-1.9-0.5-2.5-1.5l-36.1-64h-0.8v64c0,0.9-0.6,1.5-1.5,1.5h-16.9
		c-0.9,0-1.5-0.6-1.5-1.5V40.2z"/>
	<path d="M240.8,89.7c0-15.7,0.6-21,2.8-27.6c5.4-16.6,18.4-25,36.3-25c17.2,0,29.8,8.4,35.5,22.6c0.5,0.8,0.1,1.5-0.8,1.8
		l-16.3,7.3c-0.9,0.5-1.6,0.1-2.1-0.8c-2.8-6.6-7.6-11.5-16.2-11.5c-7.9,0-13,4.2-15.3,11.2c-1.2,3.8-1.6,7.3-1.6,21.9
		s0.4,18.1,1.6,21.9c2.3,7,7.3,11.2,15.3,11.2c8.5,0,13.3-5,16.2-11.5c0.5-0.9,1.2-1.2,2.1-0.8l16.3,7.3c0.9,0.3,1.2,1.1,0.8,1.8
		c-5.7,14.2-18.3,22.6-35.5,22.6c-17.8,0-30.9-8.4-36.3-25C241.4,110.7,240.8,105.5,240.8,89.7z"/>
	<path d="M329.8,40.2c0-0.9,0.6-1.5,1.5-1.5h65.4c0.9,0,1.5,0.6,1.5,1.5v16c0,0.9-0.6,1.5-1.5,1.5h-43.9c-0.6,0-0.9,0.3-0.9,0.9
		v20.2c0,0.6,0.3,0.9,0.9,0.9h36.6c0.9,0,1.5,0.6,1.5,1.5v15.9c0,0.9-0.6,1.5-1.5,1.5h-36.6c-0.6,0-0.9,0.3-0.9,0.9v21.1
		c0,0.6,0.3,0.9,0.9,0.9h43.9c0.9,0,1.5,0.6,1.5,1.5v16c0,0.9-0.6,1.5-1.5,1.5h-65.4c-0.9,0-1.5-0.6-1.5-1.5V40.2z"/>
	<path d="M477.4,40.2c0.3-0.9,0.9-1.5,2-1.5h18.9c1,0,1.6,0.6,1.9,1.5l34.5,99c0.3,0.9,0,1.5-1,1.5h-19.5c-1,0-1.6-0.5-1.9-1.5
		l-5.8-17.8h-35.7l-5.7,17.8c-0.3,1-0.9,1.5-2,1.5h-19.6c-1,0-1.4-0.6-1-1.5L477.4,40.2z M481.7,27.6c-1.2,0-1.8-0.3-2.9-1.4
		L460.4,8.9c-0.8-0.8-0.1-1.5,0.8-1.5h18c1.3,0,2.1,0.6,2.8,1.5l14.2,17.2c0.6,0.8,0.3,1.5-0.6,1.5H481.7z M500.3,102.6l-11.5-35.7
		h-0.5l-11.5,35.7H500.3z"/>
	<path d="M581.9,40.2c0-0.9,0.6-1.5,1.5-1.5h19c0.9,0,1.5,0.6,1.5,1.5v79.9c0,0.6,0.3,0.9,0.9,0.9h45c0.9,0,1.5,0.6,1.5,1.5v16.6
		c0,0.9-0.6,1.5-1.5,1.5h-66.4c-0.9,0-1.5-0.6-1.5-1.5V40.2z"/>
	<path d="M664.4,40.2c0-0.9,0.6-1.5,1.5-1.5h19c0.9,0,1.5,0.6,1.5,1.5v99c0,0.9-0.6,1.5-1.5,1.5h-19c-0.9,0-1.5-0.6-1.5-1.5V40.2z"
		/>
	<path d="M706,40.2c0-0.9,0.6-1.5,1.5-1.5h18c1,0,1.9,0.4,2.5,1.5l36,64.2h0.8V40.2c0-0.9,0.6-1.5,1.5-1.5h16.9
		c0.9,0,1.5,0.6,1.5,1.5v99c0,0.9-0.6,1.5-1.5,1.5h-17.8c-1.2,0-2-0.5-2.5-1.5l-36.1-64h-0.8v64c0,0.9-0.6,1.5-1.5,1.5h-16.9
		c-0.9,0-1.5-0.6-1.5-1.5V40.2z"/>
	<path d="M801.5,89.7c0-15.1,0.6-20.8,2.8-27.9c5.3-16.5,19.3-24.7,37.5-24.7c19,0,31.5,9.4,36.3,21.7c0.5,0.9,0.3,1.8-0.6,2.2
		l-16,6.8c-1,0.3-1.8,0-2.1-0.8c-4-6.9-9.1-10.5-17.5-10.5c-8.7,0-14.1,4.3-16.3,11.4c-1.2,3.6-1.7,8.4-1.7,21.7
		c0,13.3,0.5,18.3,1.7,21.9c2.3,7,7.8,11.2,16.6,11.2c7.6,0,14.2-3.8,16.3-10.5c0.8-2.6,1.2-5.7,1.2-10c0-0.6-0.3-0.9-0.9-0.9H845
		c-0.9,0-1.5-0.6-1.5-1.5V85.5c0-0.9,0.6-1.5,1.5-1.5h35.1c0.9,0,1.5,0.6,1.5,1.5v8.4c0,9-0.8,17.4-2.5,22.9
		c-5.1,16.3-19.2,25.5-37.2,25.5c-18.1,0-32.2-8.2-37.5-24.7C802.1,110.6,801.5,104.9,801.5,89.7z"/>
	<path d="M898.4,40.2c0-0.9,0.6-1.5,1.5-1.5h65.4c0.9,0,1.5,0.6,1.5,1.5v16c0,0.9-0.6,1.5-1.5,1.5h-43.9c-0.6,0-0.9,0.3-0.9,0.9
		v20.2c0,0.6,0.3,0.9,0.9,0.9H958c0.9,0,1.5,0.6,1.5,1.5v15.9c0,0.9-0.6,1.5-1.5,1.5h-36.6c-0.6,0-0.9,0.3-0.9,0.9v21.1
		c0,0.6,0.3,0.9,0.9,0.9h43.9c0.9,0,1.5,0.6,1.5,1.5v16c0,0.9-0.6,1.5-1.5,1.5h-65.4c-0.9,0-1.5-0.6-1.5-1.5V40.2z"/>
</g>
</svg>
